<?xml version="1.0" encoding="UTF-8" standalone="no"?><svg xmlns="http://www.w3.org/2000/svg" xmlns:xlink="http://www.w3.org/1999/xlink" data-name="Layer 2" fill="#38b6ff" height="46" preserveAspectRatio="xMidYMid meet" version="1" viewBox="2.0 2.0 46.0 46.0" width="46" zoomAndPan="magnify"><g id="change1_1"><path d="M46,12H37.76C40,10.18,41,8,41,6.27,41,4.14,39.42,2,36,2c-4.93,0-8.87,4.69-11,8-2.17-3.32-6.11-8-11-8C10.58,2,9,4.14,9,6.27,9,8,10,10.18,12.24,12H4a2,2,0,0,0-2,2v8a2,2,0,0,0,2,2H6V46a2,2,0,0,0,2,2H42a2,2,0,0,0,2-2V24h2a2,2,0,0,0,2-2V14A2,2,0,0,0,46,12ZM36,6c0.22,0,1,0,1,.33,0,1.25-2.45,4.17-8.22,5.26C30.63,9,33.36,6,36,6ZM14,6c2.67,0,5.4,3,7.26,5.59C15.45,10.5,13,7.58,13,6.33,13,6,13.74,6,14,6ZM6,16H23v4H6V16Zm4,8H23V44H10V24ZM40,44H27V24H40V44Zm4-24H27V16H44v4Z" fill="inherit"/></g></svg>