<?xml version="1.0" encoding="UTF-8" standalone="no"?><svg xmlns="http://www.w3.org/2000/svg" xmlns:xlink="http://www.w3.org/1999/xlink" fill="#000000" height="448" preserveAspectRatio="xMidYMid meet" version="1" viewBox="64.0 32.0 384.0 448.0" width="384" zoomAndPan="magnify"><linearGradient gradientUnits="userSpaceOnUse" id="a" x1="87.301" x2="424.699" xlink:actuate="onLoad" xlink:show="other" xlink:type="simple" y1="471.928" y2="134.53"><stop offset="0" stop-color="#98edf9"/><stop offset="0.533" stop-color="#98edf9"/><stop offset="1" stop-color="#98edf9"/></linearGradient><path d="M280,216v32h16v-91.719l-40-26.666l-40,26.666V248h16v-32c0-4.418,3.582-8,8-8h32 C276.418,208,280,211.582,280,216z M240,200h-8c-4.418,0-8-3.582-8-8s3.582-8,8-8h8c4.418,0,8,3.582,8,8S244.418,200,240,200z M240,176h-8c-4.418,0-8-3.582-8-8s3.582-8,8-8h8c4.418,0,8,3.582,8,8S244.418,176,240,176z M272,160h8c4.418,0,8,3.582,8,8 s-3.582,8-8,8h-8c-4.418,0-8-3.582-8-8S267.582,160,272,160z M264,192c0-4.418,3.582-8,8-8h8c4.418,0,8,3.582,8,8s-3.582,8-8,8h-8 C267.582,200,264,196.418,264,192z M248,224h16v24h-16V224z M344,248h-32v-8h8c4.418,0,8-3.582,8-8s-3.582-8-8-8h-8v-8h8 c4.418,0,8-3.582,8-8s-3.582-8-8-8h-8v-16.439l32,13.714V248z M168,197.275l32-13.714V200h-8c-4.418,0-8,3.582-8,8s3.582,8,8,8h8v8 h-8c-4.418,0-8,3.582-8,8s3.582,8,8,8h8v8h-32V197.275z M384,192c0-70.579-57.421-128-128-128s-128,57.421-128,128 s57.421,128,128,128S384,262.579,384,192z M216,264h-8h-48c-4.418,0-8-3.582-8-8v-64c0-3.2,1.907-6.093,4.849-7.354L200,166.153V152 c0-2.675,1.337-5.173,3.562-6.656L248,115.719V104h-8c-4.418,0-8-3.582-8-8s3.582-8,8-8h8v-8c0-4.418,3.582-8,8-8s8,3.582,8,8v8h8 c4.418,0,8,3.582,8,8s-3.582,8-8,8h-8v11.719l44.438,29.625c2.226,1.483,3.562,3.981,3.562,6.656v14.153l43.151,18.493 C358.093,185.907,360,188.8,360,192v64c0,4.418-3.582,8-8,8h-48h-8h-24h-32H216z M255.996,452.16 C285.432,419.652,416,270.98,416,192c0-88.225-71.775-160-160-160S96,103.775,96,192c0,36.182,28.469,93.549,82.329,165.898 C210.507,401.123,243.042,437.872,255.996,452.16z M112,192c0-79.402,64.598-144,144-144s144,64.598,144,144s-64.598,144-144,144 S112,271.402,112,192z M448,448c0,0.1-3.063,10.623-52.147,20.439C358.578,475.895,308.911,480,256,480 s-102.578-4.105-139.853-11.561C67.063,458.623,64,448.1,64,448s3.063-10.623,52.147-20.439 c24.877-4.976,55.285-8.453,88.483-10.219c24.403,29.472,43.268,49.714,45.532,52.13c1.513,1.613,3.626,2.528,5.837,2.528 s4.324-0.915,5.837-2.528c0.287-0.306,19.829-21.216,45.396-52.118c33.248,1.76,63.714,5.226,88.619,10.207 C444.937,437.377,448,447.9,448,448z" fill="url(#a)"/></svg>