<?xml version="1.0" encoding="UTF-8" standalone="no"?><svg xmlns="http://www.w3.org/2000/svg" xmlns:xlink="http://www.w3.org/1999/xlink" fill="#000000" height="1054.8" preserveAspectRatio="xMidYMid meet" version="1" viewBox="247.2 477.6 1515.6 1054.8" width="1515.6" zoomAndPan="magnify"><g id="change1_1"><path d="M1587.2,1532.38c-12.12,0-24.32-1.25-36.45-3.8-2.78-.58-5.52-1.37-8.19-2.36l-405.89-150.1c-77.35-28.6-162.76-29.21-240.5-1.71l-429.4,151.9c-2.4,.85-4.86,1.54-7.35,2.07-12.18,2.57-24.46,3.84-36.63,3.84-39.9,0-78.79-13.6-110.5-39.3-41.38-33.55-65.11-83.35-65.11-136.62,0-74.23,46.99-140.82,116.92-165.7l446.95-159.03v-1.94c0-110.73,90.08-200.81,200.81-200.81s200.82,90.08,200.82,200.81v5.38l433.62,155.52c69.69,24.99,116.5,91.52,116.5,165.55v.38c0,53.24-23.71,103.01-65.04,136.56-31.71,25.74-70.64,39.36-110.57,39.36Z" fill="#38b6ff"/></g><g id="change1_2"><path d="M1004.97,930.89c-32.03,0-58-25.97-58-58v-106.66c0-32.03,25.97-58,58-58s57.31-25.71,57.31-57.31-25.71-57.31-57.31-57.31c-15.31,0-29.7,5.96-40.52,16.79-22.65,22.65-59.37,22.65-82.02,0-22.65-22.65-22.65-59.37,0-82.02,32.73-32.73,76.26-50.76,122.55-50.76,95.56,0,173.31,77.75,173.31,173.31,0,75.23-48.18,139.42-115.31,163.33v58.64c0,32.03-25.97,58-58,58Z" fill="#38b6ff"/></g></svg>