<?xml version="1.0" encoding="UTF-8" standalone="no"?><svg xmlns="http://www.w3.org/2000/svg" xmlns:xlink="http://www.w3.org/1999/xlink" data-name="Layer 1" fill="#000000" height="500" preserveAspectRatio="xMidYMid meet" version="1" viewBox="0.0 0.0 500.0 500.0" width="500" zoomAndPan="magnify"><g id="change1_1"><path d="M500,250c0,138.07-111.93,250-250,250S0,388.07,0,250,111.93,0,250,0,500,111.93,500,250ZM172,286.73l-50.62-50.62a31.4,31.4,0,0,0-44.4,0h0a31.38,31.38,0,0,0,0,44.4l72.82,72.83,22.2,22.2a31.41,31.41,0,0,0,44.41,0l22.2-22.2L423.05,168.86a31.38,31.38,0,0,0,0-44.4h0a31.4,31.4,0,0,0-44.4,0L216.38,286.73A31.41,31.41,0,0,1,172,286.73Z" fill="#020100"/></g></svg>