<?xml version="1.0" encoding="UTF-8"?><svg xmlns="http://www.w3.org/2000/svg" height="3617.3pt" version="1.1" viewBox="0 0 3622.1 3617.32" width="3622.1pt">
 <g id="change1_1">
  <path d="m2603.4 910.12h779.2c-8.8-15.32-17.8-30.48-27.1-45.5h-752.1v45.5" fill="inherit"/>
  <path d="m2603.4 693.45h633c-12.1-15.36-24.4-30.52-37-45.49h-596v45.49" fill="inherit"/>
  <path d="m2603.4 801.8h711.8c-10.4-15.34-20.9-30.5-31.7-45.52h-680.1v45.52" fill="inherit"/>
  <path d="m2603.4 1005v13.5h836.6c-7.4-15.3-15.1-30.49-22.9-45.55h-813.7v32.05" fill="inherit"/>
  <path d="m2603.4 1451.8h983.3c-3.1-15.3-6.4-30.4-9.8-45.5h-973.5v45.5" fill="inherit"/>
  <path d="m2603.4 1126.8h885.2c-6.3-15.3-12.8-30.4-19.4-45.5h-865.8v45.5" fill="inherit"/>
  <path d="m2603.4 1343.5h957.9c-4-15.3-8.3-30.5-12.8-45.6h-945.1v45.6" fill="inherit"/>
  <path d="m2603.4 1560.1h1001.7c-2.1-15.2-4.4-30.4-6.9-45.5h-994.8v45.5" fill="inherit"/>
  <path d="m2603.4 1235.1h925.4c-5.1-15.2-10.5-30.4-16-45.5h-909.4v45.5" fill="inherit"/>
  <path d="m2508.4 539.64h-1987.1c-14.75 14.9-29.19 30.08-43.38 45.49h1915.7l114.8-45.49" fill="inherit"/>
  <path d="m2603.4 585.13h540.8c-14.2-15.41-28.6-30.59-43.4-45.49h-497.4v45.49" fill="inherit"/>
  <path d="m2235.1 647.96h-1812.4c-12.55 14.97-24.89 30.13-36.97 45.49h1734.6l114.8-45.49" fill="inherit"/>
  <path d="m2843.6 322.98h-2065.1c-21.22 14.72-42.06 29.91-62.58 45.49h2190.3c-20.5-15.58-41.4-30.77-62.6-45.49" fill="inherit"/>
  <path d="m2984.3 431.3h-2346.5c-17.41 14.84-34.57 30-51.43 45.51h2449.3c-16.8-15.51-34-30.67-51.4-45.51" fill="inherit"/>
  <path d="m2667 214.63h-1711.9c-27.01 14.53-53.63 29.69-79.8 45.52h1871.5c-26.2-15.83-52.8-30.99-79.8-45.52" fill="inherit"/>
  <path d="m1811.1-0.0039062c-136.1 0-268.7 15.039-396.2 43.488h792.3c-127.5-28.449-260.1-43.488-396.1-43.488" fill="inherit"/>
  <path d="m2423.8 106.31h-1225.5c-38.7 13.91-76.8 29.07-114.2 45.49h1454c-37.5-16.42-75.6-31.58-114.3-45.49" fill="inherit"/>
  <path d="m1462.5 1885.1h877.7v-45.5h-877.7z" fill="inherit"/>
  <path d="m1462.5 2163.5v45.5h357c7.8-15.8 17.2-31 27.9-45.5h-384.9" fill="inherit"/>
  <path d="m1462.5 2271.8v45.5h329.3c0.5-15.4 2.5-30.6 5.6-45.5h-334.9" fill="inherit"/>
  <path d="m1462.5 2380.2v45.5h349.1c-6.1-14.8-10.9-29.9-14.2-45.5h-334.9" fill="inherit"/>
  <path d="m2603.4 1668.4h1013.4c-1.2-15.2-2.6-30.3-4.1-45.5h-1009.3v45.5" fill="inherit"/>
  <path d="m1462.5 2055.2v45.5h445.9c21.3-17.2 45.1-32.5 70.9-45.5h-516.8" fill="inherit"/>
  <path d="m2125.5 2642.3c-53.2-7.5-102.8-23.2-146.6-45.5h-516.4v24.6h-0.4c0.2 3.9 0.4 7.9 0.4 11.9 0 3-0.1 6-0.2 9h663.2" fill="inherit"/>
  <path d="m2603.4 1776.8h1018.6c-0.3-15.2-0.8-30.4-1.4-45.5h-1017.2v45.5" fill="inherit"/>
  <path d="m1462.5 2534h425.6c-15.2-14.2-28.9-29.4-40.8-45.5h-384.8v45.5" fill="inherit"/>
  <path d="m1462.5 1992.4h877.7v-45.6h-877.7z" fill="inherit"/>
  <path d="m2340.2 1343.5v-45.6h-435.4l-108.6 45.6h544" fill="inherit"/>
  <path d="m1462.5 1560.1h877.7v-45.5h-877.7z" fill="inherit"/>
  <path d="m2340.2 1451.8v-45.5h-693.8l-108.5 45.5h802.3" fill="inherit"/>
  <path d="m1462.5 1668.4h877.7v-45.5h-877.7z" fill="inherit"/>
  <path d="m2340.2 1235.1v-45.5h-177.1l-108.5 45.5h285.6" fill="inherit"/>
  <path d="m1462.5 1776.8h877.7v-45.5h-877.7z" fill="inherit"/>
  <path d="m2340.2 1126.8v-11.4l-27.2 11.4h27.2" fill="inherit"/>
  <path d="m1961.8 756.28h-1623.2c-10.78 15.02-21.33 30.18-31.65 45.52h1540l114.8-45.52" fill="inherit"/>
  <path d="m1199.2 1406.3h-1154c-3.415 15.1-6.669 30.2-9.739 45.5h1163.7v-45.5" fill="inherit"/>
  <path d="m629.32 3184h2363.5c17.2-14.9 34.2-30 50.8-45.5h-2465.2c16.71 15.5 33.68 30.6 50.92 45.5" fill="inherit"/>
  <path d="m1671.9 3617.3h278.3c98.5-7.5 194.9-22.9 288.4-45.5h-855.1c93.5 22.6 189.9 38 288.4 45.5" fill="inherit"/>
  <path d="m514.09 3075.7h2593.9c14.6-15 28.9-30.1 42.9-45.5h-2679.7c14.05 15.4 28.34 30.5 42.89 45.5" fill="inherit"/>
  <path d="m1345.4 2859h1943.4c10.6-15 21-30.2 31.2-45.5h-1927.3c-14 16.3-29.9 31.5-47.3 45.5" fill="inherit"/>
  <path d="m1178.4 3509h1265.3c37.5-14 74.4-29.2 110.7-45.5h-1486.7c36.3 16.3 73.2 31.5 110.7 45.5" fill="inherit"/>
  <path d="m1434.5 2750.7h1925.5c9.1-15.1 18-30.2 26.8-45.5h-1934.5c-4.5 15.6-10.5 30.8-17.8 45.5" fill="inherit"/>
  <path d="m941.67 3400.7h1738.7c26.6-14.6 52.6-29.8 78.3-45.6h-1895.3c25.66 15.8 51.76 31 78.27 45.6" fill="inherit"/>
  <path d="m768.09 3292.3h2085.9c20.9-14.7 41.5-29.9 61.7-45.5h-2209.3c20.22 15.6 40.8 30.8 61.69 45.5" fill="inherit"/>
  <path d="m1056.6 2954.6c-64.09 0-124.71-11.8-178.61-32.8h-497.9c11.94 15.4 24.11 30.6 36.53 45.5h2788.9c12.4-14.9 24.6-30.1 36.5-45.5h-2006.8c-53.9 21-114.5 32.8-178.6 32.8" fill="inherit"/>
  <path d="m2269.6 2642.3h1151.2c7.8-15 15.4-30.2 22.8-45.5h-1027.4c-43.9 22.3-93.5 38-146.6 45.5" fill="inherit"/>
  <path d="m2603.4 2209h975.1c3.4-15.1 6.6-30.3 9.6-45.5h-984.7v45.5" fill="inherit"/>
  <path d="m2603.4 1992.4h1010c1.5-15.2 2.8-30.3 3.9-45.6h-1013.9v45.6" fill="inherit"/>
  <path d="m2603.4 1839.6v45.5h1017.5c0.5-15.1 1-30.3 1.2-45.5h-1018.7" fill="inherit"/>
  <path d="m2603.4 2100.7h995.9c2.4-15.1 4.7-30.3 6.7-45.5h-1002.6v45.5" fill="inherit"/>
  <path d="m2603.4 2314.2h-0.3c0 1.1 0 2.1 0.1 3.1h947.5c4.4-15 8.5-30.2 12.5-45.5h-959.8v42.4" fill="inherit"/>
  <path d="m2507 2534h965.4c6.6-15.1 12.9-30.2 19.1-45.5h-943.7c-12 16.1-25.6 31.3-40.8 45.5" fill="inherit"/>
  <path d="m2583.5 2425.7h932c5.4-15.1 10.6-30.3 15.7-45.5h-933.5c-3.4 15.6-8.1 30.7-14.2 45.5" fill="inherit"/>
  <path d="m1199.2 1946.8h-1194.4c1.1023 15.3 2.4188 30.4 3.9188 45.6h1190.5v-45.6" fill="inherit"/>
  <path d="m1199.2 1514.6h-1175.3c-2.443 15.1-4.74 30.3-6.853 45.5h1182.2v-45.5" fill="inherit"/>
  <path d="m1199.2 1839.6h-1199.2c0.23438 15.2 0.64844 30.4 1.2578 45.5h1197.9v-45.5" fill="inherit"/>
  <path d="m1199.2 1622.9h-1189.8c-1.5133 15.2-2.8844 30.3-4.0719 45.5h1193.9v-45.5" fill="inherit"/>
  <path d="m1199.2 1731.3h-1197.7c-0.62891 15.1-1.0977 30.3-1.3828 45.5h1199.1v-45.5" fill="inherit"/>
  <path d="m1199.2 1297.9h-1125.6c-4.498 15.1-8.748 30.3-12.815 45.6h1138.4v-45.6" fill="inherit"/>
  <path d="m1199.2 1189.6h-1089.9c-5.54 15.1-10.835 30.3-15.952 45.5h1105.9v-45.5" fill="inherit"/>
  <path d="m1415.1 972.95h-1210c-7.91 15.06-15.57 30.25-23.03 45.55h1118.2l114.8-45.55" fill="inherit"/>
  <path d="m1199.2 1081.3h-1046.3c-6.63 15.1-13.1 30.2-19.34 45.5h1065.6v-45.5" fill="inherit"/>
  <path d="m1688.5 864.62h-1421.9c-9.26 15.02-18.3 30.18-27.1 45.5h1334.2l114.8-45.5" fill="inherit"/>
  <path d="m806.58 2380.2h-715.65c5.047 15.2 10.28 30.4 15.72 45.5h640.21c17.89-16.7 37.9-32 59.72-45.5" fill="inherit"/>
  <path d="m694.19 2488.5h-563.55c6.16 15.3 12.5 30.4 19.07 45.5h520.79c6.45-15.7 14.38-30.9 23.69-45.5" fill="inherit"/>
  <path d="m650.73 2633.3c0-12.4 0.91-24.5 2.61-36.5h-474.83c7.37 15.3 14.97 30.5 22.76 45.5h449.63c-0.11-3-0.17-6-0.17-9" fill="inherit"/>
  <path d="m720.57 2813.5h-418.48c10.21 15.3 20.61 30.5 31.27 45.5h434.46c-17.43-14-33.27-29.2-47.25-45.5" fill="inherit"/>
  <path d="m660.94 2705.2h-425.58c8.7 15.3 17.6 30.4 26.72 45.5h416.61c-7.28-14.7-13.23-29.9-17.75-45.5" fill="inherit"/>
  <path d="m1199.2 2055.2h-1183.1c2.025 15.2 4.263 30.4 6.689 45.5h1176.4v-45.5" fill="inherit"/>
  <path d="m1056.6 2312c25.3 0 50 1.8 74.1 5.3h68.5v-45.5h-1140.3c3.963 15.3 8.155 30.5 12.534 45.5h911.06c24.01-3.5 48.81-5.3 74.11-5.3" fill="inherit"/>
  <path d="m1199.2 2163.5h-1165.2c3.023 15.2 6.219 30.4 9.602 45.5h1155.6v-45.5" fill="inherit"/>
 </g>
</svg>